<svg width="536" height="472" viewBox="0 0 536 472" fill="none" xmlns="http://www.w3.org/2000/svg">
<path fill-rule="evenodd" clip-rule="evenodd" d="M302.5 1.011C281.6 1.405 232.55 2.235 193.5 2.856C101.701 4.314 99.044 4.409 95.288 6.351C90.665 8.742 87.469 13.161 84.164 21.732C79.792 33.069 76.895 49.233 76.318 65.5C75.91 77.017 75.491 79.97 73.955 82.15C72.928 83.607 71.788 85.996 71.421 87.459C70.926 89.432 70.333 89.938 69.127 89.419C59.155 85.127 40.63 84.987 32.254 89.142L27.5 91.5L27.515 110.066C27.527 126.027 27.774 129.007 29.274 131.296C31.901 135.305 36.59 137.289 43.218 137.195L49 137.113V140.196C49 141.892 48.294 143.796 47.43 144.427C46.426 145.162 45.795 147.346 45.68 150.491C45.505 155.277 45.609 155.469 49.618 157.706C52.772 159.466 55.58 160.062 61.618 160.252L69.5 160.5L69.781 171.594L70.063 182.688L57.781 183.314C36.275 184.41 20.526 188.507 11.034 195.475C7.50898 198.062 5.54998 200.564 3.39698 205.228C0.540975 211.411 0.500975 211.749 0.556975 229C0.599975 242.231 0.969976 247.232 2.07598 249.5C3.51298 252.446 3.65897 252.494 10.164 252.154L16.789 251.808L14.394 256.654C13.077 259.319 10.969 265.55 9.70998 270.5C8.45098 275.45 6.60598 280.727 5.60998 282.227C1.40598 288.56 0.828975 303.254 4.15898 319.176C6.14398 328.67 6.29798 332.033 6.07698 361C5.76898 401.412 8.56098 436.939 13.561 456.236C15.829 464.987 16.472 465.861 22.836 468.845C28.072 471.299 29.445 471.492 41 471.397C57.309 471.262 63.592 469.979 74.5 464.555C86.082 458.796 88.866 456.463 90.079 451.5C90.617 449.3 91.42 435.012 91.863 419.749C92.307 404.485 92.856 391.815 93.085 391.592C93.703 390.988 182.344 390.114 317.588 389.378L437.676 388.725L438.331 404.113C439.155 423.448 440.949 434.803 445.175 447.437C448.314 456.819 448.765 457.556 453.239 460.605C462.446 466.879 483.243 469.493 500.474 466.54C514.804 464.084 515.938 463.243 520.966 451.328C525.163 441.384 528.68 426.126 530.6 409.541C532.577 392.454 532.01 350.634 529.619 337.188C528.203 329.224 528.226 328.732 530.154 325.463C531.262 323.586 532.809 319.677 533.593 316.775C535.311 310.414 536.485 284.703 535.248 280.5C534.4 277.617 534.099 277.481 527.506 277L520.646 276.5L518.859 268.173C517.876 263.593 515.985 257.518 514.655 254.673C509.838 244.36 509.492 244.928 520.331 245.361C525.541 245.569 530.406 245.367 531.143 244.912C532.15 244.289 532.65 239.172 533.16 224.292C533.932 201.781 533.796 201.244 525.624 194.548C519.724 189.714 504.067 182.191 495.167 179.915C484.44 177.171 470.231 177.381 458.851 180.452C456.527 181.078 456.21 180.879 456.271 178.833C456.309 177.55 455.985 172.393 455.551 167.374L454.761 158.248L461.513 157.818C467.594 157.431 468.548 157.07 471.132 154.178C474.539 150.365 474.763 147.24 471.893 143.591C470.161 141.389 469.905 140.12 470.454 136.456L471.123 132H478.096C489.624 132 490.267 131.073 495.111 107.47C497.367 96.479 497.368 96.427 495.438 92.549C492.249 86.147 488.823 85 472.888 85C463.034 85 458.249 85.416 455.661 86.497L452.078 87.994L450.816 83.779C450.082 81.33 447.917 77.976 445.649 75.776C441.765 72.006 441.727 71.893 437.928 52.768C435.829 42.198 433.804 30.613 433.429 27.025C432.067 13.997 427.504 6.575 418.213 2.279C414.934 0.762 410.176 0.546002 377.5 0.428002C357.15 0.354002 323.4 0.617002 302.5 1.011ZM338.5 4.661C308.861 5.23 195.798 7.197 149.128 7.956C90.716 8.906 94.74 8.24 89.964 17.746C85.018 27.592 80.017 53.005 80.006 68.357C80.001 75.438 80.173 76.146 81.75 75.522C82.713 75.141 84.905 74.594 86.623 74.305L89.747 73.779L90.271 60.64C91.069 40.663 95.472 27.291 102.898 22.289C106.136 20.108 107.17 20 124.898 20C135.129 20.001 202.646 19.516 274.937 18.924C347.227 18.332 407.874 18.129 409.708 18.473C414.391 19.352 419.36 24.085 421.971 30.154C423.194 32.997 425.659 42.909 427.45 52.18C429.24 61.452 430.884 69.191 431.102 69.378C431.321 69.566 432.738 70.016 434.25 70.378C437.548 71.17 437.584 70.885 435.45 60.815C434.598 56.792 433.013 47.744 431.929 40.709C428.43 18.005 426.646 12.308 421.997 8.998C415.578 4.427 411.708 3.985 380.091 4.215C363.816 4.333 345.1 4.534 338.5 4.661ZM234.329 23.432L106.158 24.5L103.589 26.915C98.357 31.833 94.004 49.231 94.001 65.237L94 73.973L97.736 75.534C105.648 78.84 110.312 86.083 110.325 95.086L110.333 100.673L202.417 101.336C253.063 101.7 321.365 101.999 354.199 101.999L413.898 102L412.449 98.532C408.492 89.062 413.955 76.485 423.838 72.31C426.206 71.31 427 70.442 426.571 69.324C426.239 68.458 425.328 64.093 424.547 59.625C420.208 34.799 417.254 26.217 412.136 23.57C409.598 22.258 405.27 22.03 385.8 22.182C372.985 22.283 304.823 22.845 234.329 23.432ZM427.094 75.26C425.221 75.876 422.201 77.865 420.384 79.682C412.377 87.689 414.357 100.475 424.414 105.705C428.332 107.743 437.184 106.995 440.791 104.32C450.351 97.232 450.138 82.46 440.395 76.826C436.441 74.538 431.178 73.919 427.094 75.26ZM82.52 80.229C68.997 88.086 72.493 108.549 87.883 111.627C92.8 112.61 99.609 109.522 103.074 104.739C106.918 99.433 107.219 91.086 103.75 85.99C98.513 78.295 89.88 75.952 82.52 80.229ZM462.429 89.096C456.926 89.793 453 91.463 453 93.109C453 93.68 452.044 100.676 450.876 108.655C448.431 125.355 448.856 128 453.979 128C458.666 128 460.942 130.941 460.299 136.166C459.644 141.493 457.476 145.161 455.205 144.784C453.803 144.55 453.543 145.212 453.744 148.5C454.147 155.092 454.407 155.336 460.19 154.569C466.529 153.728 468.66 152.646 469.561 149.809C470.089 148.144 469.623 147.111 467.624 145.517C465.052 143.467 465.016 143.278 466.072 137.459C466.667 134.181 467.787 130.513 468.562 129.307C469.854 127.297 470.54 127.162 476.786 127.685C482.233 128.142 483.921 127.937 485.195 126.663C487.402 124.455 492.188 103.267 491.808 97.379C491.543 93.264 491.083 92.364 488.5 90.9C485.145 88.999 470.959 88.018 462.429 89.096ZM38.464 91.394C35.695 92.067 32.882 92.955 32.214 93.368C30.93 94.161 30.425 120.931 31.587 126.625C32.569 131.439 36.395 133.456 44.106 133.223C51.879 132.989 52.748 133.65 53.004 140C53.268 146.534 53.196 146.803 51 147.5C48.103 148.419 48.404 152.563 51.515 154.602C53.247 155.736 56.439 156.289 61.765 156.375L69.5 156.5L69.806 152.82C70.11 149.165 70.082 149.135 65.624 148.466C63.155 148.096 60.888 147.15 60.586 146.364C60.284 145.577 60.321 142.227 60.666 138.918C61.291 132.946 61.33 132.884 65.898 130.7L70.5 128.5L72.188 118.5C73.825 108.803 73.817 108.377 71.938 104.434C70.872 102.198 70 99.418 70 98.257C70 91.712 52.673 87.941 38.464 91.394ZM445.446 105.087C445.077 105.685 445.275 106.675 445.887 107.287C446.704 108.104 447 107.815 447 106.2C447 103.785 446.481 103.413 445.446 105.087ZM106.127 107.821C103.965 110.857 95.034 116 91.922 116C89.796 116 88 122.663 88 130.55C88 135.536 88.209 136.133 89.75 135.534C98.802 132.019 138.686 125.176 165.5 122.538C241.844 115.026 344.246 117.338 412.5 128.115C419.65 129.244 427.484 130.422 429.909 130.732L434.318 131.296L433.659 122.731C433.297 118.021 432.749 113.51 432.441 112.707C432.118 111.866 430.075 111.043 427.624 110.767C425.283 110.503 422.255 109.558 420.894 108.666C418.683 107.217 409.95 106.991 338.46 106.536C294.482 106.255 224.698 105.753 183.384 105.42L108.268 104.814L106.127 107.821ZM440.028 108.467C439.328 109.31 438.073 110 437.238 110C435.995 110 435.835 110.947 436.352 115.25C436.699 118.137 436.987 123.241 436.991 126.592L437 132.683L440.866 133.842C442.992 134.479 445.074 135 445.491 135C445.909 135 445.968 131.287 445.623 126.75C444.246 108.655 443.067 104.804 440.028 108.467ZM75.154 120.25C73.088 137.573 72.88 140.808 73.792 141.372C74.294 141.682 76.441 141.05 78.564 139.968C80.686 138.885 82.941 138 83.575 138C84.321 138 84.929 134.735 85.299 128.75C85.613 123.662 86.175 118.493 86.549 117.262C87.057 115.585 86.76 114.883 85.363 114.461C84.339 114.151 82.226 113.246 80.669 112.449C79.112 111.652 77.482 111 77.048 111C76.613 111 75.761 115.162 75.154 120.25ZM228 122.593C190.894 124.619 179.754 125.387 162.5 127.109C128.741 130.478 96.232 136.705 79.75 142.961L74 145.144V163.552V181.959L78.212 184.108C80.529 185.29 84.808 188.699 87.722 191.684C90.93 194.969 93.17 196.595 93.4 195.805C96.541 185.005 101.775 178.041 111.45 171.787C121.752 165.129 129.631 163.563 165.5 161.042C172.65 160.54 210.45 159.854 249.5 159.517C306.071 159.03 326.902 159.218 352 160.444C381.714 161.896 408.44 164.479 419.363 166.956C430.1 169.391 439.136 179.086 442.412 191.686L443.5 195.872L448.366 189.768L453.231 183.663L450.947 163.082C449.691 151.762 448.333 141.574 447.929 140.442C447.318 138.727 445.302 138.02 435.848 136.202C408.549 130.953 367.515 126.197 330.5 123.99C312.436 122.913 240.172 121.928 228 122.593ZM449.28 132.712C448.966 133.531 449.196 134.503 449.792 134.871C450.387 135.239 451.342 136.769 451.913 138.27C453.681 142.921 455.618 141.702 456.215 135.562C456.468 132.958 456.123 132.545 453.176 131.923C450.683 131.398 449.709 131.595 449.28 132.712ZM66.783 134.683C64.946 135.165 63.366 140.906 64.359 143.492C64.677 144.322 66.076 145 67.469 145C69.87 145 70 144.718 70 139.5C70 136.475 69.662 134.052 69.25 134.116C68.838 134.18 67.727 134.435 66.783 134.683ZM205.5 164.136C165.022 164.748 142.763 166.196 128.666 169.134C115.115 171.958 103.147 180.97 98.915 191.538C96.624 197.259 96.527 198.499 96.522 222.25C96.518 244.591 96.356 247 94.866 247C93.957 247 92.977 246.383 92.687 245.628C92.398 244.873 92.107 235.321 92.042 224.399C91.927 205.392 91.82 204.371 89.543 200.521C86.787 195.863 79.604 188.603 78.277 189.136C77.772 189.339 78.585 198.125 80.115 209C84.882 242.897 85.47 248.729 84.262 250.184C83.387 251.238 80.07 251.352 67.927 250.742C59.547 250.321 52.521 250.146 52.314 250.353C52.107 250.56 51.656 258.215 51.312 267.364L50.687 284H78.879C102.983 284 107.423 283.769 109.501 282.407C113.504 279.785 125.956 278.773 139.953 279.934C167.848 282.247 366.749 285.02 365.549 283.08C364.659 281.639 367.709 279.175 371.784 278.043C376.58 276.711 387.042 276.807 410 278.394C422.412 279.252 429.386 280.163 431.191 281.162C433.199 282.274 437.958 282.714 449.941 282.897C464.896 283.125 466 283.016 465.999 281.321C465.998 279.764 465.432 273.519 463.507 253.822C462.866 247.274 460.108 244.292 457.293 247.107C456.484 247.916 455.735 247.525 454.507 245.651C453.583 244.241 453.112 242.627 453.46 242.064C454.373 240.588 456.73 224.006 457.52 213.5C458.113 205.623 456.85 189.516 455.536 188.203C454.728 187.394 450.028 193.475 447.401 198.727C445.021 203.487 444.844 204.649 445.421 211.727C446.398 223.71 446.944 243.982 446.334 245.573C445.652 247.35 443.382 247.438 442.72 245.713C442.448 245.005 442.167 237.982 442.094 230.107C441.945 214.088 439.918 196.279 437.369 188.604C436.177 185.018 434.015 181.855 430.03 177.87C424.824 172.664 423.798 172.095 416.941 170.612C405.122 168.056 382.988 166.065 348.5 164.454C316.422 162.956 287.681 162.892 205.5 164.136ZM253.744 165.589C253.42 165.913 253.404 167.826 253.708 169.839C254.164 172.858 254.027 173.281 252.93 172.25C252.199 171.563 250.565 171 249.3 171C246.116 171 246.204 175.295 249.455 178.545C252.442 181.533 254.361 181.639 257.036 178.964C258.157 177.843 259.619 177.234 260.286 177.61C261.179 178.113 261.169 177.937 260.25 176.947C259.563 176.206 259 174.79 259 173.8C259 172.81 258.55 172 258 172C257.45 172 257.053 172.338 257.118 172.75C257.607 175.845 256.713 178.174 254.75 178.921C251.919 180 249 177.676 249 174.345C249 171.631 250.486 171.259 251.819 173.64C253.288 176.265 255 174.229 255 169.858C255 167.081 255.388 165.963 256.25 166.253C256.938 166.483 257.561 167.308 257.635 168.086C257.935 171.243 258.068 171.441 258.946 170.054C260.766 167.176 256.133 163.2 253.744 165.589ZM264.958 168.933C267.12 170.595 267.658 170.652 269.43 169.411C272.003 167.609 273.927 167.624 275.956 169.46C277.377 170.746 277.695 170.716 278.628 169.21C279.563 167.701 279.153 167.475 275.155 167.284C272.663 167.165 270.062 167.534 269.376 168.103C268.513 168.819 267.51 168.808 266.13 168.069C262.952 166.369 262.273 166.87 264.958 168.933ZM284.75 169.177C285.988 170.526 287 172.627 287 173.847C287 175.212 286.135 176.412 284.75 176.969C283.062 177.647 282.931 177.889 284.227 177.937C285.177 177.971 286.708 176.849 287.629 175.443C289.215 173.023 289.199 172.744 287.342 170.256C286.262 168.809 284.731 167.424 283.939 167.176C283.093 166.911 283.427 167.736 284.75 169.177ZM277.168 173.715C277.026 175.584 274.454 178 272.606 178C272.317 178 270.938 176.767 269.54 175.26C268.143 173.753 267 173 267 173.586C267 175.13 271.371 179 273.114 179C273.932 179 275.083 178.517 275.673 177.927C276.438 177.162 276.932 177.594 277.392 179.427C277.764 180.908 278.748 182 279.71 182C281.256 182 281.258 181.906 279.742 180.75C278.84 180.063 277.93 177.7 277.719 175.5C277.509 173.3 277.261 172.497 277.168 173.715ZM391.329 174.033C385.266 176.434 378.997 182.17 375.837 188.209C372.954 193.716 372.737 206.378 375.421 212.41C377.931 218.05 387.599 227.275 392.75 228.943C396.186 230.057 397 230.779 397 232.719C397 234.039 397.43 234.852 397.956 234.527C398.482 234.202 398.632 233.204 398.289 232.31C397.754 230.916 398.225 230.779 401.582 231.348C404.019 231.761 408.464 231.354 413.338 230.272C420.271 228.732 421.75 227.982 426.143 223.77C432.64 217.541 435.294 211.497 435.294 202.934C435.294 191.298 428.659 180.968 417.5 175.23C410.538 171.65 398.712 171.109 391.329 174.033ZM124 173.882C110.049 176.941 100.237 190.363 101.253 205C102.819 227.551 126.463 240.907 146.683 230.661C160.411 223.704 166.04 206.03 159.155 191.5C155.959 184.755 149.908 178.732 143.466 175.882C138.578 173.72 129.154 172.751 124 173.882ZM394.882 177.319C379.807 182.962 373.699 196.478 379.661 211C381.705 215.979 387.671 221.846 393.5 224.61C401.113 228.22 411.736 227.993 418.567 224.075C427.092 219.185 431.012 212.434 430.978 202.703C430.927 188.233 420.006 177.339 404.561 176.352C400.957 176.122 397.034 176.514 394.882 177.319ZM123.939 178.365C104.949 183.486 98.894 207.74 113.067 221.913C130.558 239.404 159.71 226.887 157.77 202.718C156.759 190.132 148.556 180.786 136.191 178.134C129.911 176.788 129.779 176.79 123.939 178.365ZM264 178C261.673 178.745 261.651 178.808 263.691 178.9C264.896 178.955 266.16 178.55 266.5 178C266.84 177.45 266.979 177.045 266.809 177.1C266.639 177.155 265.375 177.56 264 178ZM320.329 181.458C314.961 183.793 314.79 184.825 315.059 213.359C315.194 227.737 315.077 241.525 314.799 244C314.522 246.475 314.479 246.813 314.705 244.75C314.93 242.688 315.604 241 316.201 241C316.942 241 317.079 243.239 316.633 248.035C316.274 251.904 316.262 256.195 316.607 257.569C317.229 260.05 317.304 260.065 327.219 259.784L337.204 259.5L337.352 223.5C337.433 203.7 337.165 186.307 336.756 184.85C335.499 180.371 326.906 178.597 320.329 181.458ZM347.4 181.428C345.694 182.17 343.97 183.615 343.568 184.639C342.904 186.33 342.903 228.669 343.567 237C343.72 238.925 343.881 244.845 343.923 250.155L344 259.81L351.25 260.705C355.238 261.196 358.952 261.276 359.504 260.881C360.056 260.486 362.022 260.014 363.872 259.832L367.237 259.5L367.073 224.5C366.893 186.299 366.577 184.046 361 181.273C357.743 179.653 351.309 179.726 347.4 181.428ZM203.5 182.628C201.85 183.542 200.169 184.788 199.765 185.395C198.888 186.714 198.966 237.256 199.867 251.5L200.5 261.5H211.5H222.5L222.281 239.5C222.16 227.4 221.774 210.166 221.422 201.202C220.8 185.337 220.718 184.861 218.335 183.3C214.762 180.959 207.134 180.614 203.5 182.628ZM232.465 181.952C227.725 183.873 227.759 183.463 229.021 222.7C229.672 242.94 230.496 259.797 230.852 260.16C231.209 260.523 235.775 260.973 241 261.16L250.5 261.5L250.474 224.145L250.448 186.789L247.208 183.895C244.566 181.534 243.095 181.012 239.234 181.063C236.63 181.098 233.584 181.498 232.465 181.952ZM261.338 182.936C255.954 186.218 256.194 181.278 258.406 243.421C258.737 252.727 259.119 260.438 259.254 260.556C259.389 260.674 264 260.935 269.5 261.135L279.5 261.5L279.424 224.771C279.352 190.003 279.246 187.929 277.426 185.919C272.846 180.858 266.634 179.706 261.338 182.936ZM288.92 183.721L285.687 186.441L286.37 222.428C286.876 249.058 287.372 258.622 288.277 259.212C288.95 259.65 293.775 259.894 299 259.754L308.5 259.5L308.708 244C308.823 235.475 308.657 219.289 308.341 208.032L307.764 187.564L304.482 184.282C300.07 179.87 293.767 179.642 288.92 183.721ZM174.704 183.596C173.166 184.43 171.561 186.099 171.138 187.306C170.188 190.013 171.358 260.151 172.38 261.806C173.502 263.621 191.893 263.444 192.596 261.611C192.889 260.847 192.762 243.651 192.314 223.399L191.5 186.575L188.102 184.288C184.166 181.638 178.824 181.362 174.704 183.596ZM462.657 183.225C459.199 184.141 458.869 184.506 459.366 186.871C461.745 198.185 462.2 207.524 460.967 219.731C460.258 226.754 459.637 233.7 459.589 235.167C459.54 236.633 459.163 238.171 458.75 238.583C458.337 238.996 458 240.158 458 241.167C458 242.66 458.797 243 462.3 243C464.665 243 467.14 242.46 467.8 241.8C468.46 241.14 469 241.044 469 241.587C469 242.204 474.541 242.482 483.75 242.327C491.863 242.19 504.919 241.971 512.765 241.839C520.611 241.707 527.407 241.352 527.869 241.05C528.33 240.747 529.019 232.598 529.398 222.941L530.088 205.381L525.949 200.68C522.796 197.098 519.154 194.671 510.655 190.489C504.52 187.47 496.818 184.325 493.54 183.5C486.768 181.796 468.66 181.634 462.657 183.225ZM49 187.682C34.849 189.146 19.233 194.063 12.963 199.029C6.42698 204.206 4.55998 210.618 4.52698 228C4.51198 235.975 4.85398 243.77 5.28698 245.322L6.07398 248.144L15.287 247.322C20.354 246.87 37.212 246.571 52.75 246.658C68.287 246.746 81 246.655 81 246.458C81 246.261 79.202 233.14 77.003 217.3C74.805 201.46 73.005 188.162 73.003 187.75C73 187.015 55.912 186.967 49 187.682ZM369.336 244C369.336 248.125 369.513 249.813 369.728 247.75C369.944 245.688 369.944 242.313 369.728 240.25C369.513 238.188 369.336 239.875 369.336 244ZM407.968 239.823C402.009 244.486 400.348 252.842 403.969 259.939C406.668 265.23 411.443 268 417.865 268C422.309 268 423.505 267.539 426.814 264.549C432.299 259.594 433.226 255.728 430.953 247.296C429.945 243.558 429.093 240.843 429.06 241.263C429.027 241.682 427.196 240.886 424.991 239.494C419.608 236.096 412.555 236.232 407.968 239.823ZM397.31 244.5C397.315 247.8 397.502 249.029 397.725 247.232C397.947 245.435 397.943 242.735 397.715 241.232C397.486 239.729 397.304 241.2 397.31 244.5ZM413.75 241.08C412.788 241.641 411.948 243.09 411.884 244.3C411.789 246.104 411.683 246.171 411.296 244.675C410.85 242.948 410.722 242.942 408.932 244.562C404.727 248.367 405.714 258.057 410.707 261.984C412.407 263.321 414.772 264 417.734 264C421.438 264 422.691 263.471 425.099 260.894C427.408 258.422 428 256.873 428 253.299C428 249.126 425.588 243.162 423.784 242.875C422.466 242.665 421.612 242.379 418.685 241.166C415.39 239.801 415.929 239.811 413.75 241.08ZM113.984 242.852C99.374 250.615 106.183 270.39 122.913 268.782C135.047 267.616 141.711 255.259 134.885 246.581C130.424 240.91 120.853 239.202 113.984 242.852ZM115.314 246.95C104.937 253.277 110.34 266.123 122.787 264.721C126.016 264.357 128.091 263.37 130.322 261.14C139.392 252.07 126.66 240.032 115.314 246.95ZM448.079 248.583C448.127 249.748 448.364 249.985 448.683 249.188C448.972 248.466 448.936 247.603 448.604 247.271C448.272 246.939 448.036 247.529 448.079 248.583ZM421.158 251C421.158 252.375 421.385 252.938 421.662 252.25C421.94 251.563 421.94 250.438 421.662 249.75C421.385 249.063 421.158 249.625 421.158 251ZM459.1 251.705C459.829 252.917 460.64 253.694 460.903 253.431C461.166 253.168 460.57 252.176 459.579 251.226C457.857 249.577 457.835 249.598 459.1 251.705ZM371.75 281.619C369.896 282.178 369.413 286.814 370.594 292.718L371.187 295.685L393.334 296.974L415.48 298.263L421.24 291.903C424.408 288.405 427 285.036 427 284.417C427 283.675 422.646 283.067 414.25 282.636C392.548 281.522 373.581 281.068 371.75 281.619ZM513.697 282.014C512.155 282.477 504.055 283.847 495.697 285.058C482.203 287.013 477.744 287.202 455.913 286.74L431.325 286.219L428.663 289.556C427.198 291.391 426 293.042 426 293.224C426 293.405 429.488 293.462 433.75 293.349C438.012 293.236 453.425 292.882 468 292.563C491.531 292.048 518.589 290.073 524.426 288.444C530.383 286.783 532 285.701 532 283.379C532 281.071 531.769 281.003 524.25 281.086C519.987 281.133 515.239 281.551 513.697 282.014ZM121.5 283.757C114.365 284.214 110.866 285.079 111.188 286.307C111.359 286.963 113.068 290.271 114.984 293.659L118.468 299.818L128.341 300.524C140.154 301.37 166.989 300.207 168.75 298.773C169.513 298.152 170 295.27 170 291.378V285L159.25 284.91C153.338 284.861 143.325 284.524 137 284.16C130.675 283.797 123.7 283.615 121.5 283.757ZM7.00098 289.997C6.37798 292.31 6.02198 294.356 6.20998 294.544C6.57898 294.913 50.934 296.571 89.405 297.655L113.181 298.324L110.1 293.317L107.019 288.31L60.26 287.657C34.542 287.297 12.292 286.73 10.817 286.398C8.34698 285.841 8.04298 286.127 7.00098 289.997ZM174 290.741C174 294.071 174.389 294.871 176.25 295.37C179.252 296.174 356.441 296.175 362.31 295.371C366.815 294.753 366.888 294.686 366.306 291.621C365.98 289.904 365.665 288.43 365.606 288.344C365.548 288.259 322.413 287.857 269.75 287.452L174 286.715V290.741ZM332.302 301.012C327.49 302.95 325.385 312.975 328.517 319.033C330.205 322.297 334.637 325 338.302 325C341.777 325 347.224 321.009 349.248 316.98C352.04 311.424 351.544 307.344 347.6 303.4C344.639 300.439 343.574 300.008 339.35 300.063C336.683 300.098 333.511 300.525 332.302 301.012ZM193.479 305.321C189.132 309.668 188.157 314.614 190.647 319.693C195.317 329.22 208 330.968 212.996 322.775C218.487 313.769 211.741 302 201.088 302C197.565 302 196.208 302.592 193.479 305.321Z" fill="black"/>
</svg>
