<svg width="249" height="243" viewBox="0 0 249 243" fill="none" xmlns="http://www.w3.org/2000/svg">
<path fill-rule="evenodd" clip-rule="evenodd" d="M56.3416 24.455C53.2089 27.593 53.0862 32.512 56.0612 35.686C57.9354 37.684 57.9993 38 56.5292 38C55.5931 38 54.5342 38.788 54.177 39.75C53.8197 40.712 52.7319 42.625 51.7588 44C49.6531 46.978 45.8477 72.436 44.6601 91.5C44.4465 94.921 44.0503 95.551 41.9186 95.852C39.5155 96.191 39.4885 96.135 41.1701 94.273C43.6302 91.549 43.722 74.917 41.2879 72.893C40.231 72.014 36.0285 71.406 29.2681 71.155C15.3661 70.64 14.9698 70.983 14.9698 83.533C14.9698 89.837 15.377 93.093 16.2553 93.824C16.9628 94.412 20.4249 95.03 23.9488 95.197C29.8539 95.476 30.4018 95.696 30.9367 98C31.5575 100.669 36.0454 102.838 41.1671 102.944C43.6771 102.995 43.9116 103.33 43.9116 106.856V110.711L36.6762 111.289C27.6903 112.006 22.0955 113.932 19.7133 117.129C18.5307 118.716 17.6684 122.138 17.2792 126.793L16.6764 134H31.8968H47.1172L46.4216 125.194C45.5603 114.28 46.7898 109.241 51.6251 103.879C58.1779 96.61 54.3147 97 119.749 97C177.014 97 178.835 97.059 182.685 99.027C189.844 102.686 195.389 113.669 194.14 121.715C193.903 123.247 193.47 126.638 193.179 129.25L192.65 134H207.601H222.552L222.452 127.75C222.397 124.313 222.054 120.375 221.69 119C220.687 115.223 213.314 111.978 204.16 111.284L196.604 110.711V106.992C196.604 103.336 196.682 103.261 201.135 102.65C207.319 101.8 209.578 100.413 209.578 97.465C209.578 95.087 209.817 95 216.365 95C220.313 95 223.652 94.498 224.349 93.8C225.106 93.041 225.546 89.227 225.546 83.422C225.546 76.088 225.214 73.969 223.889 72.872C221.685 71.047 201.336 71.14 199.117 72.985C196.788 74.922 196.968 91.64 199.346 94.273C201.027 96.135 201.001 96.191 198.597 95.852C196.164 95.508 196.075 95.195 194.825 82.5C192.544 59.345 190.121 45.874 187.505 41.792C186.197 39.753 184.534 38.066 183.807 38.042C182.892 38.013 183.121 37.193 184.556 35.365C188.026 30.945 187.172 25.852 182.561 23.463C178.526 21.372 175.909 21.646 173.107 24.455C169.974 27.593 169.851 32.512 172.826 35.686L174.997 38H166.648C159.759 38 158.586 37.782 159.942 36.75C164.227 33.49 164.01 26.752 159.52 23.601C156.125 21.218 152.888 21.651 149.622 24.923C146.192 28.36 146.004 30.337 148.69 34.75L150.668 38H143.023H135.379L137.549 35.686C143.797 29.022 136.091 19.174 127.937 23.4C123.204 25.852 122.312 30.897 125.82 35.365L127.888 38H120.176C112.788 38 112.533 37.924 114.103 36.184C115.006 35.186 116.026 32.954 116.371 31.224C116.894 28.603 116.495 27.575 113.965 25.04C110.403 21.471 107.111 21.169 103.427 24.073C101.398 25.671 100.797 27.027 100.797 30.001C100.797 32.122 101.471 34.532 102.294 35.357C103.117 36.182 103.791 37.114 103.791 37.429C103.791 37.743 100.345 38 96.1325 38H88.473L90.6436 35.686C93.6186 32.512 93.4958 27.593 90.3632 24.455C87.5608 21.646 84.9441 21.372 80.9092 23.463C76.2975 25.852 75.4442 30.945 78.9142 35.365L80.982 38H73.3524H65.7227L67.7906 35.365C70.8175 31.509 70.4622 27.686 66.7886 24.589C62.9363 21.341 59.4923 21.297 56.3416 24.455ZM78.6397 44.953C64.4094 45.313 56.5901 45.892 55.8426 46.643C54.9334 47.555 49.9704 77.783 49.9135 82.75C49.9046 83.544 51.3556 84 53.8915 84H57.8835V79.7C57.8835 74.923 59.1949 73 62.4533 73C63.9353 73 65.0281 72.03 65.8874 69.953C67.8345 65.242 71.3464 64 82.7185 64C94.6725 64 97.2902 64.855 99.4908 69.477C100.462 71.518 101.899 73 102.907 73C105.668 73 107.783 75.85 107.783 79.571V83H120.757H133.731V79.2C133.731 74.832 135.132 73 138.473 73C140.173 73 141.102 72.19 141.842 70.066C143.614 64.97 146.346 64 158.922 64C171.401 64 173.472 64.739 175.631 69.96C176.374 71.761 177.622 73 178.69 73C181.642 73 183.63 75.846 183.63 80.071C183.63 83.77 183.806 84 186.624 84C190.285 84 190.275 84.314 187.295 63.013C185.255 48.442 184.98 47.457 182.633 46.369C181.064 45.642 171.404 45.051 156.611 44.777L133.085 44.342L133.158 48.421L133.232 52.5L126.994 53.39C123.353 53.909 118.161 53.909 114.52 53.39L108.282 52.5L107.976 48.25C107.67 44.03 107.642 44.001 103.984 44.203C101.957 44.315 90.5518 44.653 78.6397 44.953ZM62.0282 101.067C54.8975 103.929 49.9185 111.082 49.8916 118.5C49.8616 127 53.1171 150.403 54.5472 151.965C55.7229 153.249 56.2478 153.218 58.7867 151.715C62.6439 149.432 80.3283 149.299 83.2734 151.532C86.1536 153.715 154.239 153.656 157.125 151.468C160.075 149.233 177.486 149.429 181.511 151.743C183.849 153.088 184.812 153.216 185.725 152.301C186.974 151.05 190.506 126.733 190.576 118.907C190.636 112.063 187.144 106.135 181.072 102.773L176.146 100.047L120.258 100.087C87.7983 100.11 63.3884 100.521 62.0282 101.067ZM65.1958 107.721C57.9464 109.051 55.2867 119.552 60.8006 125.077C67.1898 131.479 77.8433 127.113 77.8433 118.093C77.8433 111.415 71.8504 106.501 65.1958 107.721ZM165.59 110.923C159.201 117.325 163.558 128 172.56 128C181.962 128 186.575 117.732 180.177 111.042C177.802 108.557 176.467 108 172.888 108C169.376 108 167.928 108.58 165.59 110.923ZM96.5447 111.126C95.0367 111.972 94.8092 113.78 94.8092 124.927C94.8092 138.228 95.5677 140.797 99.0956 139.44C102.21 138.243 102.515 113.673 99.4459 111.122C98.6944 110.496 97.6655 110.498 96.5447 111.126ZM107.35 111.328C105.965 112.343 105.765 114.446 106.005 125.51L106.286 138.5H109.28H112.274L112.563 127C112.723 120.675 112.614 114.537 112.323 113.36C111.656 110.671 109.467 109.777 107.35 111.328ZM152.383 111.154C150.936 111.965 150.697 113.925 150.697 124.927C150.697 138.951 151.498 141.246 155.623 139.034C157.517 138.018 157.682 137.029 157.669 126.715C157.651 111.558 156.693 108.737 152.383 111.154ZM84.5389 111.624C84.1497 112.014 83.8313 118.285 83.8313 125.56C83.8313 136.852 84.0688 138.877 85.455 139.41C89.1865 140.845 89.8881 138.338 89.5977 124.604C89.3372 112.28 89.1985 111.483 87.2833 111.208C86.1626 111.047 84.9281 111.235 84.5389 111.624ZM117.392 112.528C117.046 113.427 116.765 119.511 116.765 126.047C116.765 136.612 116.971 138.04 118.623 138.926C119.919 139.621 120.986 139.553 122.148 138.702C123.583 137.65 123.775 135.68 123.533 124.49L123.252 111.5L120.635 111.196C118.93 110.998 117.8 111.462 117.392 112.528ZM129.449 111.624C129.059 112.014 128.741 118.285 128.741 125.56C128.741 136.852 128.978 138.877 130.365 139.41C134.096 140.845 134.798 138.338 134.507 124.604C134.247 112.28 134.108 111.483 132.193 111.208C131.072 111.047 129.838 111.235 129.449 111.624ZM140.426 111.624C140.037 112.014 139.719 118.053 139.719 125.044C139.719 138.317 140.477 140.797 144.111 139.4C145.554 138.845 145.727 137.053 145.484 125.132C145.224 112.277 145.092 111.483 143.171 111.208C142.05 111.047 140.816 111.235 140.426 111.624ZM60.4493 134.571C58.611 136.414 58.5112 137.438 59.9144 140.066C61.9154 143.813 67.8634 141.893 67.8634 137.5C67.8634 133.289 63.4643 131.551 60.4493 134.571ZM172.436 135.578C171.009 138.716 172.321 141.346 175.554 141.827C178.375 142.246 180.637 140.355 180.637 137.578C180.637 132.645 174.455 131.138 172.436 135.578ZM23.4937 135.95C18.9678 136.58 18.2273 138.059 18.0636 146.796L17.9638 152.092L22.2642 151.869C24.6294 151.746 27.1703 152.021 27.9108 152.479C28.9288 153.11 29.1194 152.789 28.6932 151.156C28.0386 148.647 28.6902 148.495 31.3778 150.532C33.4577 152.108 35.3618 152.51 34.5554 151.202C34.285 150.763 34.4866 149.751 35.0025 148.952C35.79 147.736 36.2251 147.854 37.6812 149.675C39.5674 152.033 40.4855 152.298 46.1571 152.118L49.8996 152L49.8776 146.25C49.8427 137.348 48.5134 136.274 36.9257 135.793C31.7112 135.577 25.6663 135.647 23.4937 135.95ZM195.666 135.94C192.794 136.409 192.093 137.046 191.372 139.844C190.899 141.683 190.646 145.058 190.813 147.344C191.113 151.476 191.138 151.501 195.225 151.609C197.485 151.669 199.891 152.063 200.571 152.484C201.472 153.042 201.624 152.671 201.135 151.125C200.357 148.669 201.774 148.308 203.59 150.5C204.902 152.083 208.09 152.632 207.153 151.113C206.853 150.626 207.218 149.718 207.967 149.096C209.026 148.214 209.693 148.526 210.992 150.514C211.91 151.917 213.096 152.793 213.63 152.463C214.164 152.132 214.362 151.474 214.069 150.999C213.457 150.008 217.378 147 219.282 147C221.624 147 220.591 149.6 217.812 150.701C215.071 151.786 215.072 151.787 218.81 151.894L222.552 152V146.547C222.552 143.548 222.031 139.948 221.394 138.547C220.386 136.329 219.58 135.986 215.156 135.893C212.363 135.834 207.607 135.695 204.588 135.583C201.569 135.472 197.554 135.633 195.666 135.94ZM29.4407 138C29.78 138.55 30.7311 139 31.5545 139C32.3778 139 32.774 138.55 32.4347 138C32.0954 137.45 31.1443 137 30.321 137C29.4976 137 29.1014 137.45 29.4407 138ZM35.4287 138C35.768 138.55 36.4945 139 37.0434 139C37.5923 139 37.764 138.55 37.4247 138C37.0854 137.45 36.3588 137 35.8099 137C35.261 137 35.0894 137.45 35.4287 138ZM202.093 138C202.433 138.55 203.47 138.993 204.398 138.985C205.852 138.971 205.879 138.835 204.588 138C202.634 136.734 201.313 136.734 202.093 138ZM208.081 138C208.421 138.55 209.147 139 209.696 139C210.245 139 210.417 138.55 210.077 138C209.738 137.45 209.011 137 208.463 137C207.914 137 207.742 137.45 208.081 138ZM39.6702 138.662C40.3568 138.94 41.4795 138.94 42.1651 138.662C42.8517 138.385 42.2899 138.158 40.9176 138.158C39.5454 138.158 38.9845 138.385 39.6702 138.662ZM194.422 138.683C195.141 138.972 196.003 138.936 196.334 138.604C196.665 138.272 196.076 138.036 195.025 138.079C193.862 138.127 193.625 138.364 194.422 138.683ZM214.382 138.683C215.101 138.972 215.962 138.936 216.294 138.604C216.625 138.272 216.036 138.036 214.984 138.079C213.822 138.127 213.585 138.364 214.382 138.683ZM34.4307 141C34.77 141.55 35.7211 142 36.5444 142C37.3678 142 37.764 141.55 37.4247 141C37.0854 140.45 36.1343 140 35.3109 140C34.4876 140 34.0914 140.45 34.4307 141ZM42.1841 140.693C43.1551 140.947 44.5024 140.93 45.1781 140.656C45.8537 140.382 45.0593 140.175 43.4126 140.195C41.7659 140.215 41.213 140.439 42.1841 140.693ZM201.594 141C203.548 142.266 204.87 142.266 204.089 141C203.75 140.45 202.713 140.007 201.785 140.015C200.331 140.029 200.304 140.165 201.594 141ZM207.582 142.465C207.582 143.878 208.406 145.371 209.512 145.965C212.16 147.385 213.034 147.262 211.705 145.658C211.094 144.92 210.879 144.031 211.226 143.682C211.962 142.944 209.749 140 208.459 140C207.977 140 207.582 141.109 207.582 142.465ZM215.067 141C213.809 141.542 213.625 141.859 214.568 141.859C215.392 141.859 216.963 141.473 218.061 141C219.32 140.458 219.503 140.141 218.56 140.141C217.737 140.141 216.165 140.527 215.067 141ZM22.9538 142C20.6315 142.745 20.6095 142.808 22.6454 142.9C23.848 142.955 25.1094 142.55 25.4488 142C25.7881 141.45 25.9268 141.045 25.7571 141.1C25.5875 141.155 24.326 141.56 22.9538 142ZM29.4407 142C29.78 142.55 30.4796 143 30.9966 143C31.5136 143 31.9357 142.55 31.9357 142C31.9357 141.45 31.2351 141 30.3798 141C29.5246 141 29.1014 141.45 29.4407 142ZM193.61 142C192.375 142.8 192.462 142.96 194.109 142.914C195.207 142.884 197.004 142.473 198.101 142C199.93 141.213 199.888 141.136 197.602 141.086C196.23 141.055 194.434 141.467 193.61 142ZM43.1631 143.22C40.9067 144.311 40.1093 146 41.8508 146C43.8338 146 47.9036 144 47.9036 143.025C47.9036 141.739 46.0733 141.814 43.1631 143.22ZM34.6053 143.658C33.6972 144.569 35.8618 147 37.5824 147C38.6821 147 38.758 146.561 37.9237 145C36.8239 142.941 35.753 142.508 34.6053 143.658ZM202.219 145.551C203.341 147.267 204.217 147.772 204.894 147.094C206.114 145.871 204.047 143 201.949 143C200.821 143 200.873 143.493 202.219 145.551ZM214.818 143.662C214.132 143.94 213.57 144.628 213.57 145.192C213.57 146.36 218.517 145.39 220.007 143.929C221.009 142.947 217.085 142.745 214.818 143.662ZM29.1733 146C30.4587 148.062 32.9337 148.744 32.9337 147.035C32.9337 146.141 29.806 144 28.4996 144C28.1843 144 28.4877 144.9 29.1733 146ZM195.357 145.299C193.052 146.212 191.397 149 193.161 149C194.844 149 199.572 145.767 199.073 144.957C198.748 144.431 198.397 144.048 198.292 144.106C198.187 144.165 196.866 144.702 195.357 145.299ZM21.7063 146.689C18.9069 147.422 19.5726 149.797 22.4239 149.251C25.5905 148.644 28.0855 145.944 25.321 146.116C24.2941 146.18 22.6664 146.438 21.7063 146.689ZM43.4126 148.178C40.6482 149.725 40.6382 149.738 41.3737 150.93C42.1362 152.166 47.9036 149.556 47.9036 147.974C47.9036 146.694 45.9016 146.785 43.4126 148.178ZM60.5162 153.5C60.0302 154.771 56.5672 155 37.8568 155H15.7722L16.4628 161.25C17.2523 168.384 19.0017 171.775 22.2183 172.406C25.6943 173.089 63.3655 175.017 73.044 175.008C77.8144 175.004 81.995 174.55 82.3343 174C82.7275 173.362 96.4629 173 120.258 173C144.053 173 157.788 173.362 158.182 174C158.521 174.55 162.477 175.002 166.973 175.005C176.464 175.011 215.009 173.064 218.293 172.413C221.441 171.788 223.55 167.031 223.55 160.55V155H202.215C184.469 155 180.672 154.748 179.639 153.5C178.687 152.351 176.08 152 168.507 152C160.638 152 158.501 152.306 158.044 153.5C157.547 154.796 152.415 155 120.273 155C88.428 155 82.8992 154.784 81.8353 153.5C80.8862 152.354 78.2924 152 70.8424 152C63.095 152 60.9733 152.308 60.5162 153.5ZM18.1894 194.522C18.5017 207.012 19.1335 215.453 19.86 216.812C20.9678 218.888 21.6784 218.999 33.7171 218.985C40.6961 218.976 46.9784 218.606 47.678 218.161C49.4155 217.056 50.6221 208.145 50.3407 198.5C50.2119 194.1 50.0602 187.238 50.0034 183.25C49.9085 176.623 49.7219 176 47.8377 176C46.704 176 44.9346 176.451 43.9066 177.003C42.6571 177.673 41.8318 177.673 41.4186 177.003C41.0783 176.451 40.0973 176 39.24 176C37.9656 176 37.9077 176.275 38.9217 177.5C40.9386 179.935 37.9706 179.393 35.2471 176.829C32.8179 174.542 30.8299 174.96 32.804 177.343C33.6882 178.411 33.6243 179.011 32.5275 179.923C31.3689 180.887 30.8469 180.582 29.7611 178.305C28.6024 175.875 27.7052 175.428 23.0556 174.959L17.6884 174.418L18.1894 194.522ZM219.118 175.532C216.906 177.208 213.57 177.49 213.57 176C213.57 175.45 212.867 175 212.006 175C210.896 175 210.626 175.581 211.075 177C211.439 178.147 211.255 179 210.643 179C210.057 179 208.68 178.1 207.582 177C204.975 174.387 204.42 174.477 205.149 177.391C205.988 180.74 203.848 181.659 202.437 178.556C201.401 176.279 200.692 176 195.945 176H190.616V195.277C190.616 220.378 189.731 219.005 205.893 218.985C212.585 218.976 218.655 218.592 219.381 218.131C220.107 217.67 221.106 215.539 221.602 213.396C222.689 208.703 222.867 173.987 221.804 174.032C221.393 174.049 220.183 174.724 219.118 175.532ZM54.3536 176.87C54.1001 177.125 53.8915 179.222 53.8915 181.531V185.728L58.5222 186.364C61.0681 186.714 76.4811 187 92.7733 187H122.394L126.454 190.482C135.459 198.206 143.696 197.925 151.995 189.608C154.572 187.026 154.752 187 169.863 186.985C178.258 186.976 185.718 186.594 186.44 186.136C187.288 185.597 187.64 183.745 187.438 180.901L187.123 176.5L120.97 176.453C84.5858 176.428 54.6081 176.615 54.3536 176.87ZM22.7043 178.572C20.0317 180.025 18.9987 182 20.9109 182C22.9907 182 26.9458 179.601 26.9458 178.339C26.9458 176.656 26.1484 176.7 22.7043 178.572ZM194.858 178.035C193.622 178.53 192.612 179.626 192.612 180.471C192.612 181.792 193.042 181.83 195.704 180.742C197.404 180.047 198.785 179.044 198.773 178.514C198.741 177.149 197.458 176.992 194.858 178.035ZM43.5523 180.63C41.732 181.618 41.0444 182.527 41.6542 183.138C42.9036 184.39 47.9036 182.151 47.9036 180.339C47.9036 178.646 47.1092 178.698 43.5523 180.63ZM216.315 180.572C213.654 182.018 212.607 184 214.503 184C216.892 184 220.556 181.896 220.556 180.525C220.556 178.652 219.832 178.66 216.315 180.572ZM35.3399 181.145C34.5764 182.381 38.5464 186.709 39.5354 185.719C39.9027 185.35 39.6951 184.434 39.0724 183.682C38.4506 182.931 38.1811 182.075 38.4746 181.782C38.768 181.488 38.3288 180.986 37.4995 180.667C36.6702 180.348 35.6981 180.563 35.3399 181.145ZM207.247 181.669C206.387 182.531 209.5 186 211.136 186C212.11 186 212.131 185.452 211.231 183.508C210.097 181.058 208.563 180.35 207.247 181.669ZM29.6543 184.016C30.3479 186.673 31.8329 187.507 33.27 186.046C34.1543 185.146 33.9696 184.524 32.4936 183.433C29.8389 181.47 29.0336 181.635 29.6543 184.016ZM201.938 184.492C203.151 187.113 205.586 187.919 205.586 185.7C205.586 184.067 203.576 182 201.988 182C201.061 182 201.05 182.575 201.938 184.492ZM22.7043 184.689C21.7442 184.941 20.9578 186.025 20.9578 187.099C20.9578 188.946 21.1185 188.968 23.9518 187.5C28.5884 185.098 27.813 183.352 22.7043 184.689ZM194.359 185.08C193.398 185.641 192.612 186.527 192.612 187.05C192.612 187.572 193.398 187.986 194.359 187.968C196.171 187.935 199.598 185.758 199.598 184.64C199.598 183.661 196.319 183.936 194.359 185.08ZM44.6601 186.611C41.0464 188.524 41.0454 190.436 44.6581 189.527C48.0084 188.685 48.1661 188.538 47.7419 186.658C47.4445 185.338 47.0762 185.332 44.6601 186.611ZM215.217 187.465C212.287 189.69 214.167 191.259 217.619 189.471C219.235 188.634 220.556 187.51 220.556 186.974C220.556 185.549 217.353 185.844 215.217 187.465ZM35.4347 187.991C34.6093 189.328 36.6622 192 38.5125 192C39.4765 192 39.6262 191.38 39.0434 189.801C38.1043 187.258 36.4107 186.408 35.4347 187.991ZM207.25 188.425C206.935 189.248 207.718 190.514 209.104 191.425C212.499 193.654 212.836 193.411 211.075 190C209.389 186.732 208.101 186.202 207.25 188.425ZM28.9417 188.941C28.9417 189.459 29.3978 190.165 29.9557 190.51C30.5136 190.856 30.7122 191.557 30.3958 192.069C30.0804 192.581 30.4477 193 31.2112 193C33.5824 193 34.0075 191.742 32.282 189.831C30.4916 187.849 28.9417 187.436 28.9417 188.941ZM202.152 191.115C203.314 193.365 204.062 193.927 204.849 193.139C205.636 192.35 205.431 191.486 204.11 190.024C201.378 186.998 200.33 187.582 202.152 191.115ZM23.2033 191.22C21.2502 192.164 19.9778 195 21.5067 195C23.1893 195 27.9178 191.767 27.4188 190.957C26.6983 189.789 26.0865 189.827 23.2033 191.22ZM195.357 191.162C193.848 191.715 192.612 192.804 192.612 193.583C192.612 195.368 193.024 195.356 196.686 193.457C198.324 192.609 199.398 191.484 199.073 190.957C198.748 190.431 198.397 190.036 198.292 190.079C198.187 190.122 196.866 190.61 195.357 191.162ZM44.1611 193.22C42.2759 194.132 40.9146 197 42.3677 197C44.0344 197 47.9036 194.442 47.9036 193.339C47.9036 191.769 47.211 191.747 44.1611 193.22ZM216.315 193.572C213.642 195.025 212.609 197 214.521 197C216.601 197 220.556 194.601 220.556 193.339C220.556 191.656 219.759 191.7 216.315 193.572ZM35.3019 194.206C34.9227 194.821 35.6453 196.162 36.9087 197.187C39.5933 199.365 40.0444 199.192 39.2829 196.276C38.6352 193.793 36.3039 192.581 35.3019 194.206ZM28.9417 194.711C28.9417 195.237 29.2781 196.004 29.6902 196.417C30.1024 196.829 30.4387 197.692 30.4387 198.333C30.4387 198.975 31.1124 199.5 31.9357 199.5C34.1852 199.5 33.7351 196.945 31.1872 195.25C29.9517 194.428 28.9417 194.186 28.9417 194.711ZM207.125 194.932C206.589 195.801 210.189 199 211.702 199C212.077 199 211.866 197.879 211.231 196.508C210.057 193.973 208.165 193.246 207.125 194.932ZM201.938 197.492C203.182 200.181 204.098 200.603 205.114 198.956C205.9 197.683 203.831 195 202.065 195C201.056 195 201.029 195.53 201.938 197.492ZM195.357 197.36C192.518 198.422 191.556 201 193.999 201C195.879 201 200.152 197.443 199.012 196.827C198.512 196.556 196.866 196.796 195.357 197.36ZM22.7043 197.689C20.6384 198.23 20.337 201 22.344 201C23.1065 201 24.7911 200.115 26.0865 199.033C28.2851 197.198 28.309 197.072 26.4468 197.149C25.349 197.195 23.6644 197.438 22.7043 197.689ZM44.6601 199.613C41.7839 201.134 40.9915 203 43.222 203C45.1721 203 48.2339 200.482 47.7918 199.244C47.5313 198.516 46.5064 198.637 44.6601 199.613ZM215.01 200.418C213.945 201.198 213.42 202.182 213.841 202.604C214.861 203.626 219.784 201.834 220.309 200.25C220.872 198.55 217.411 198.66 215.01 200.418ZM35.5953 200.667C34.4277 201.837 34.8728 202.899 37.0115 204.046C39.6622 205.468 40.3867 204.742 38.9676 202.086C37.8229 199.943 36.763 199.497 35.5953 200.667ZM207.247 200.669C206.387 201.531 209.5 205 211.136 205C212.11 205 212.131 204.452 211.231 202.508C210.097 200.058 208.563 199.35 207.247 200.669ZM28.9737 201.75C28.9906 202.162 29.6663 203.376 30.4747 204.446C31.6553 206.012 32.1862 206.145 33.1872 205.129C34.1822 204.118 34.0435 203.579 32.4936 202.433C30.3699 200.863 28.9238 200.582 28.9737 201.75ZM202.11 204.033C203.645 207.006 205.586 207.254 205.586 204.476C205.586 203.233 202.727 201 201.135 201C200.811 201 201.249 202.365 202.11 204.033ZM23.2033 204.031C21.2792 204.806 19.9139 208 21.5067 208C23.1893 208 27.9178 204.767 27.4188 203.957C26.7192 202.824 26.1783 202.833 23.2033 204.031ZM194.858 204.031C192.934 204.806 191.569 208 193.161 208C194.844 208 199.572 204.767 199.073 203.957C198.374 202.824 197.833 202.833 194.858 204.031ZM216.315 206.218C214.806 206.74 213.57 207.628 213.57 208.192C213.57 209.311 218.488 208.417 219.895 207.042C221.286 205.683 219.233 205.21 216.315 206.218ZM43.3557 207.418C42.2909 208.198 41.7031 209.12 42.0494 209.467C43.1282 210.549 47.9036 208.856 47.9036 207.392C47.9036 205.6 45.8208 205.612 43.3557 207.418ZM207.258 206.658C206.35 207.569 208.514 210 210.235 210C211.335 210 211.411 209.561 210.576 208C209.476 205.941 208.406 205.508 207.258 206.658ZM35.4706 207.932C34.9037 208.851 38.9346 212.32 39.6911 211.563C40.3139 210.939 37.9466 207 36.9496 207C36.4526 207 35.787 207.419 35.4706 207.932ZM201.826 209C203.111 211.062 205.586 211.744 205.586 210.035C205.586 209.141 202.459 207 201.152 207C200.837 207 201.14 207.9 201.826 209ZM29.8479 210.75C30.7371 214.079 33.9317 215.142 33.9317 212.109C33.9317 210.988 33.0634 209.605 32.0016 209.035C29.2212 207.544 29.0326 207.694 29.8479 210.75ZM22.7043 209.689C21.7442 209.941 20.9578 210.616 20.9578 211.19C20.9578 211.784 21.9249 211.974 23.2033 211.63C24.4388 211.299 25.7851 211.021 26.1973 211.014C26.6094 211.006 26.9458 210.55 26.9458 210C26.9458 208.973 25.7681 208.887 22.7043 209.689ZM193.86 209.662C193.174 209.94 192.612 210.628 192.612 211.192C192.612 212.36 197.559 211.39 199.049 209.929C200.051 208.947 196.127 208.745 193.86 209.662ZM43.6621 211.689C40.723 212.459 41.724 213.682 44.9096 213.213C46.5563 212.971 47.9036 212.374 47.9036 211.887C47.9036 210.966 46.6481 210.908 43.6621 211.689ZM216.065 212C214.141 212.829 214.148 212.862 216.256 212.93C217.458 212.968 218.72 212.55 219.059 212C219.789 210.817 218.812 210.817 216.065 212ZM36.4267 213C36.766 213.55 37.8029 213.993 38.731 213.985C40.1851 213.971 40.2121 213.835 38.9217 213C36.9676 211.734 35.6462 211.734 36.4267 213ZM202.592 213.031C202.592 213.564 203.266 214 204.089 214C204.913 214 205.586 213.823 205.586 213.607C205.586 213.391 204.913 212.955 204.089 212.638C203.266 212.322 202.592 212.499 202.592 213.031ZM208.58 213C210.534 214.266 211.856 214.266 211.075 213C210.736 212.45 209.699 212.007 208.771 212.015C207.317 212.029 207.29 212.165 208.58 213ZM22.5436 213.856C22.2532 214.326 23.1254 214.499 24.4807 214.239C25.837 213.979 26.9458 213.594 26.9458 213.383C26.9458 212.61 23.0546 213.027 22.5436 213.856ZM195.107 214L193.111 214.859L195.107 214.914C196.205 214.945 197.777 214.533 198.6 214C199.931 213.138 199.931 213.037 198.6 213.086C197.777 213.116 196.205 213.527 195.107 214ZM30.6713 216.124C31.3489 216.808 32.1543 217.115 32.4607 216.807C32.768 216.499 32.2142 215.94 31.2301 215.564C29.808 215.022 29.6932 215.136 30.6713 216.124ZM36.4267 216C36.766 216.55 37.4925 217 38.0414 217C38.5903 217 38.762 216.55 38.4227 216C38.0833 215.45 37.3568 215 36.8079 215C36.259 215 36.0874 215.45 36.4267 216ZM43.9116 216C41.5893 216.745 41.5673 216.808 43.6032 216.9C44.8058 216.955 46.0673 216.55 46.4066 216C46.7459 215.45 46.8846 215.045 46.715 215.1C46.5453 215.155 45.2839 215.56 43.9116 216ZM23.7023 216.662C24.3889 216.94 25.5116 216.94 26.1973 216.662C26.8839 216.385 26.322 216.158 24.9498 216.158C23.5775 216.158 23.0167 216.385 23.7023 216.662ZM196.418 216.683C197.137 216.972 197.999 216.936 198.33 216.604C198.661 216.272 198.072 216.036 197.021 216.079C195.858 216.127 195.621 216.364 196.418 216.683ZM203.404 216.683C204.123 216.972 204.985 216.936 205.316 216.604C205.647 216.272 205.058 216.036 204.007 216.079C202.844 216.127 202.607 216.364 203.404 216.683ZM207.582 216.393C207.582 216.609 208.256 217.045 209.079 217.362C209.903 217.678 210.576 217.501 210.576 216.969C210.576 216.436 209.903 216 209.079 216C208.256 216 207.582 216.177 207.582 216.393ZM215.317 216.662C216.003 216.94 217.126 216.94 217.812 216.662C218.498 216.385 217.936 216.158 216.564 216.158C215.192 216.158 214.631 216.385 215.317 216.662Z" fill="black"/>
</svg>
