<svg aria-hidden="true" style="position: absolute; width: 0; height: 0; overflow: hidden;" version="1.1" xmlns="http://www.w3.org/2000/svg" xmlns:xlink="http://www.w3.org/1999/xlink">
<defs>
<symbol id="icon-res" viewBox="0 0 37 32">
<path d="M12.872 0.262c-2.728 0.604-4.544 1.429-6.688 3.038-2.705 2.029-4.68 4.872-5.739 8.26-0.416 1.329-0.445 1.619-0.445 4.417s0.029 3.088 0.445 4.417c1.061 3.393 3.158 6.396 5.83 8.348 5.847 4.273 13.434 4.348 19.372 0.192l1.201-0.84-0.551-0.677c-0.303-0.372-1.058-1.314-1.679-2.093s-1.16-1.416-1.201-1.416c-0.040 0-0.342 0.209-0.671 0.464-6.050 4.693-15.19 1.628-17.1-5.734-1.584-6.107 2.533-12.226 8.881-13.197 3.343-0.511 6.686 0.606 9.199 3.075 1.013 0.996 1.394 1.52 2.011 2.773 0.419 0.85 0.761 1.633 0.761 1.74 0 0.143-0.645 0.196-2.422 0.197-2.471 0.003-2.908 0.085-2.807 0.532 0.098 0.435 7.508 9.312 7.867 9.424 0.22 0.069 0.459 0.001 0.679-0.192 0.757-0.665 7.518-9.012 7.518-9.281 0-0.434-0.307-0.486-2.855-0.486h-2.335l-0.279-1.148c-1.1-4.52-4.47-8.542-8.892-10.612-2.106-0.986-3.804-1.369-6.407-1.445-1.85-0.054-2.571-0.007-3.694 0.242z"></path>
</symbol>
</defs>
</svg>
